<?xml version="1.0"?>
<svg xmlns="http://www.w3.org/2000/svg" xmlns:xlink="http://www.w3.org/1999/xlink" version="1.1" viewBox="0 0 423.979 423.979" enable-background="new 0 0 423.979 423.979" width="512px" height="512px" class=""><g><path d="m415.979,290.259h-16.544c1.743-5.199 3.237-10.489 4.474-15.851h12.07c4.418,0 8-3.582 8-8s-3.582-8-8-8h-9.17c0.999-7.527 1.506-15.165 1.506-22.878 0-25.072-5.306-49.256-15.777-71.928 2.369-14.844 2.079-30.657-0.865-47.047-7.531-41.942-31.561-80.133-62.711-99.67-2.599-1.63-5.902-1.63-8.501,0-17.86,11.202-33.837,28.967-45.474,50.445-12.907-3.045-26.15-4.586-39.457-4.586h-47.082c-13.304,0-26.546,1.541-39.456,4.586-11.636-21.478-27.613-39.243-45.474-50.445-2.599-1.63-5.902-1.63-8.501,0-31.151,19.537-55.181,57.729-62.711,99.669-2.944,16.391-3.234,32.204-0.865,47.047-10.473,22.67-15.78,46.854-15.78,71.928 0,7.713 0.507,15.352 1.506,22.879h-9.167c-4.418,0-8,3.582-8,8s3.582,8 8,8h12.068c1.237,5.362 2.731,10.651 4.474,15.851h-16.542c-4.418,0-8,3.582-8,8s3.582,8 8,8h22.821c8.514,18.839 20.486,36.206 35.589,51.308 32.726,32.726 76.066,50.749 122.038,50.749h47.082c45.971,0 89.311-18.023 122.037-50.749 15.102-15.103 27.075-32.469 35.588-51.308h22.824c4.418,0 8-3.582 8-8s-3.582-8-8-8zm-25.329-31.85h-115.917c-4.418,0-8,3.582-8,8s3.582,8 8,8h112.703c-1.383,5.4-3.047,10.689-4.976,15.851h-107.727c-4.418,0-8,3.582-8,8s3.582,8 8,8h100.703c-25.896,51.013-78.888,86.057-139.906,86.057h-47.082c-61.019,0-114.011-35.043-139.908-86.057h100.705c4.418,0 8-3.582 8-8s-3.582-8-8-8h-107.73c-1.929-5.161-3.593-10.45-4.976-15.851h112.705c4.418,0 8-3.582 8-8s-3.582-8-8-8h-115.918c-1.096-7.468-1.665-15.112-1.665-22.879 0-23.459 5.123-46.06 15.226-67.176 6.378-11.829 14.009-23.191 22.683-33.773 2.801-3.417 2.301-8.458-1.116-11.259-3.418-2.801-8.458-2.301-11.259,1.116-3.967,4.84-7.732,9.834-11.277,14.955 0.201-6.516 0.914-13.197 2.137-20.01 6.405-35.675 25.83-68.151 51.21-86.106 11.136,7.9 21.348,18.83 29.797,31.811-9.237-1.541-19.471-2.743-29.555-3.434-4.413-0.294-8.226,3.027-8.528,7.435-0.302,4.408 3.027,8.226 7.435,8.528 11.509,0.788 27.76,2.7 40.77,5.779 1.868,3.962 3.561,8.011 5.074,12.131-10.208-2.123-20.634-3.555-31.135-4.274-4.401-0.297-8.226,3.027-8.528,7.435-0.302,4.408 3.027,8.226 7.435,8.528 12.757,0.873 25.39,2.877 37.596,5.961 1.462,3.61 5.38,5.704 9.285,4.764 4.295-1.034 6.938-5.355 5.904-9.651-2.156-8.951-5.061-17.715-8.667-26.166 10.601-2.245 21.427-3.379 32.3-3.379h47.082c10.891,0 21.732,1.138 32.345,3.388-3.156,7.597-5.701,15.628-7.962,25.013-1.035,4.295 1.608,8.616 5.904,9.651 3.62,0.874 7.257-0.867 8.932-4.007 11.893-2.935 23.497-4.763 35.338-5.574 4.408-0.302 7.737-4.12 7.435-8.528-0.301-4.408-4.115-7.735-8.528-7.435-9.735,0.667-19.312,1.968-28.98,3.947 1.422-4.081 2.986-7.933 4.744-11.709 11.699-2.849 25.667-4.964 38.945-5.874 4.408-0.302 7.737-4.12 7.435-8.528s-4.117-7.728-8.528-7.435c-9.174,0.628-18.682,1.803-27.661,3.385 8.443-12.959 18.644-23.872 29.766-31.762 25.38,17.954 44.804,50.43 51.21,86.107 1.224,6.813 1.937,13.497 2.138,20.013-3.546-5.122-7.312-10.117-11.278-14.958-2.8-3.418-7.842-3.918-11.258-1.118-3.417,2.8-3.918,7.841-1.118,11.258 8.673,10.584 16.306,21.949 22.688,33.783 10.099,21.116 15.219,43.713 15.219,67.168-0.002,7.768-0.57,15.411-1.666,22.879zm-216.411-64.449c0-20.615-16.771-37.387-37.387-37.387-20.616,0-37.388,16.772-37.388,37.387s16.772,37.387 37.388,37.387c20.616,0 37.387-16.772 37.387-37.387zm-37.386,21.387c-11.793,0-21.388-9.594-21.388-21.387 0-11.793 9.595-21.387 21.388-21.387 11.792,0 21.387,9.594 21.387,21.387-0.001,11.792-9.595,21.387-21.387,21.387zm8-23.909v5.046c0,4.418-3.582,8-8,8s-8-3.582-8-8v-5.046c0-4.418 3.582-8 8-8s8,3.581 8,8zm150.273,0v5.046c0,4.418-3.582,8-8,8s-8-3.582-8-8v-5.046c0-4.418 3.582-8 8-8s8,3.581 8,8zm-8-34.865c-20.615,0-37.387,16.772-37.387,37.387s16.771,37.387 37.387,37.387 37.387-16.771 37.387-37.387-16.772-37.387-37.387-37.387zm0,58.774c-11.792,0-21.387-9.594-21.387-21.387 0-11.793 9.594-21.387 21.387-21.387s21.387,9.594 21.387,21.387c0,11.792-9.595,21.387-21.387,21.387zm-67.137,83.99v-24.735l24.286-25.236c1.435-1.491 2.236-3.479 2.236-5.547v-11.1c0-4.418-3.582-8-8-8h-53.045c-4.418,0-8,3.582-8,8v11.099c0,2.069 0.801,4.057 2.236,5.547l24.288,25.238v24.735c-5.085,14.779-21.35,27.064-36.106,27.064h-33.804c-4.418,0-8,3.582-8,8s3.582,8 8,8h33.803c16.788,0 33.836-9.847 44.106-24.172 10.27,14.325 27.318,24.172 44.106,24.172h33.805c4.418,0 8-3.582 8-8s-3.582-8-8-8h-33.805c-14.756-0.001-31.021-12.286-36.106-27.065zm-8-39.497l-18.403-19.123h36.805l-18.402,19.123z" data-original="#000000" class="active-path" data-old_color="#FFFCFC" fill="#FFFFFF"/></g> </svg>
